<?xml version="1.0" encoding="UTF-8" standalone="no"?>
<!-- Created with Inkscape (http://www.inkscape.org/) -->

<svg
   version="1.1"
   id="svg1"
   width="507.81332"
   height="358.85333"
   viewBox="0 0 507.81332 358.85333"
   sodipodi:docname="Logo2.eps"
   xmlns:inkscape="http://www.inkscape.org/namespaces/inkscape"
   xmlns:sodipodi="http://sodipodi.sourceforge.net/DTD/sodipodi-0.dtd"
   xmlns="http://www.w3.org/2000/svg"
   xmlns:svg="http://www.w3.org/2000/svg">
  <defs
     id="defs1" />
  <sodipodi:namedview
     id="namedview1"
     pagecolor="#ffffff"
     bordercolor="#000000"
     borderopacity="0.25"
     inkscape:showpageshadow="2"
     inkscape:pageopacity="0.0"
     inkscape:pagecheckerboard="0"
     inkscape:deskcolor="#d1d1d1">
    <inkscape:page
       x="0"
       y="0"
       inkscape:label="1"
       id="page1"
       width="507.81332"
       height="358.85333"
       margin="0"
       bleed="0" />
  </sodipodi:namedview>
  <g
     id="g1"
     inkscape:groupmode="layer"
     inkscape:label="1">
    <g
       id="group-R5">
      <path
         id="path2"
         d="m 1595.37,1010.18 c 7.14,-5.94 22.78,-11.621 28.34,-7.93 3.68,2.45 7.42,4.73 11.19,6.91 -15.27,3.38 -30.37,7.15 -45.34,11.3 0.31,-3.65 2.18,-7.26 5.81,-10.28"
         style="fill:#1c2156;fill-opacity:1;fill-rule:nonzero;stroke:none"
         transform="matrix(0.13333333,0,0,-0.13333333,0,358.85333)" />
      <path
         id="path3"
         d="m 1512.54,2123.06 c 23.95,-1.17 47.97,-1.56 71.82,-3.75 24.71,-2.26 49.25,-6.27 73.87,-9.52 -48.74,-3.82 -98.35,-15.73 -145.79,6.78 0.03,2.16 0.07,4.33 0.1,6.49 z m 313.31,60.48 c 1,-2.96 2,-5.92 3,-8.88 l -42.64,-14.28 c -0.59,2.64 -1.18,5.29 -1.77,7.94 13.81,5.07 27.61,10.14 41.41,15.22 z m -493.03,-675.2 c 0,0 -36.74,-6.8 -61.23,6.8 0,0 39.46,25.85 61.23,-6.8 z m 23.72,-50.03 c 0.11,-2.39 0.23,-4.78 0.34,-7.16 -15.69,-4.98 -31.25,-10.51 -47.18,-14.54 -3.96,-1 -9.14,2.84 -13.76,4.46 2.59,4.65 4.69,12.93 7.85,13.35 17.44,2.36 35.14,2.79 52.75,3.89 z m 1258.69,538.55 c -13.09,57.39 -22.7,115.57 -36.23,172.84 -11.68,49.39 -30.24,96.37 -58.69,139.1 -27.65,41.54 -51.08,86.3 -82.11,125.04 -31.02,38.71 -68.47,72.44 -104.37,107.02 -44.97,43.33 -96.77,77.28 -155.13,99.34 -42.03,15.89 -84.92,32.86 -128.9,39.35 -62.15,9.16 -125.67,11.95 -188.59,11.81 -32.6,-0.08 -65.76,-10.3 -97.59,-19.59 -44.6,-13 -89.19,-27.06 -132,-44.95 -54.38,-22.73 -106.57,-50.79 -147.95,-94.14 -26.72,-27.98 -52.35,-57.23 -75.97,-87.84 -23.88,-30.95 -47.68,-62.64 -66.18,-96.89 -32.9,-60.88 -37.69,-127.65 -25.77,-194.68 10.21,-57.38 0.71,-110.18 -26.49,-160.47 -28.25,-52.23 -54.6,-105.81 -87.11,-155.3 -20.77,-31.6 -32.28,-66.21 -47.19,-99.73 -9.53,-21.4 5.14,-57.47 29.34,-69.08 41.27,-19.79 50.62,-51.19 41.7,-92.69 -3.61,-16.79 -4.68,-34.13 -7,-51.2 -2.35,-17.27 1.71,-30.11 21.26,-33.99 20.88,-4.16 28.48,-13.49 19.98,-36.68 -9.19,-25.07 5.73,-48.19 32.21,-52.78 15.83,-2.74 14.69,-8.23 11.67,-20.63 -4.38,-17.97 2.46,-32.89 16.14,-46.32 54.99,-53.94 121.13,-59.83 191.67,-45.36 35.17,7.2 69.9,16.73 104.5,26.39 15.61,4.35 26.07,1.08 26.21,-15.51 0.24,-26.85 -0.74,-53.86 -3.59,-80.55 -2.96,-27.76 -7.26,-55.48 6.44,-81.29 18.19,-34.29 53.23,-40.84 86.11,-50.58 -28.01,-9.6 -56.94,-18.82 -85.32,-29.53 -16.06,-6.06 -31.49,-14.01 -46.65,-22.14 -7.11,-3.81 -10.55,-9.64 -10.07,-15.37 14.97,-4.15 30.07,-7.92 45.34,-11.3 49.37,28.62 105.56,35.57 159.56,48.86 35.66,8.77 72.33,14.1 108.86,18.42 18.27,2.16 37.21,-1.59 55.86,-2.36 15.27,-0.64 30.62,-1.81 45.82,-0.84 8.89,0.57 17.53,4.88 26.11,7.45 -4.53,24.9 -21.61,28.57 -37.98,29.73 -53.96,3.82 -108.01,6.38 -162.04,9.13 -32.5,1.66 -65.11,1.73 -97.51,4.38 -35.96,2.94 -57.19,29.63 -53.89,65.35 2.28,24.72 7.39,49.45 6.83,74.07 -0.42,18.78 -4.68,38.85 -12.66,55.79 -15.35,32.64 -39.51,35.16 -80.1,26.3 -54.41,-11.88 -110.17,-19.33 -165.73,-23.43 -21.25,-1.57 -44.25,9.68 -65.18,18.21 -14.29,5.83 -24.83,17.79 -21.84,36.23 2.96,18.25 7.02,32.26 29.9,37.87 25.52,6.26 50.04,18.65 73.09,31.73 8.1,4.6 16.5,21.06 14.05,28.63 -2.92,8.99 -16.46,16.95 -27.03,20.54 -18.83,6.38 -38.95,8.85 -58.37,13.61 -4.4,1.08 -9.17,4.01 -12.02,7.52 -22.76,27.93 -52.17,40.01 -87.36,37.41 -3.17,26.32 -6.14,51.92 -9.36,77.5 -2.99,23.75 -20.17,36.25 -38.44,47.81 -5.23,3.31 -10.67,6.35 -15.57,10.09 -30.7,23.45 -31.27,30.26 -10.82,62.76 10.81,17.19 18.31,36.43 28.83,53.83 23.09,38.18 46.4,76.27 70.97,113.5 52.86,80.11 72.95,166.29 51.48,260.89 -1.66,7.31 -2.86,14.71 -4.27,22.07 2.91,0.55 4.89,1.26 5.09,0.92 21.8,-37.15 59.66,-54.36 94.27,-75.27 27.67,-16.71 54.8,-36.62 84.98,-46.41 58.71,-19.05 119.27,-21.32 176.08,8.69 14.13,7.47 35.25,7.71 39.3,31.47 1.68,9.87 22.61,8.66 30.01,-0.66 26.77,-33.72 37.54,-68.79 26.65,-113.73 -15.44,-63.73 -38.74,-123.93 -62.96,-184.41 -21.03,-52.52 -18.71,-106.02 7.87,-157.21 18.23,-35.11 28.72,-71.76 26.48,-111.97 -1.37,-24.43 12.06,-43.03 28.56,-60.1 28,-28.98 28.47,-40.96 6.35,-75.84 -6.32,-9.98 -13.49,-19.86 -17.42,-30.81 -9.53,-26.53 -20.47,-53.03 -4.94,-81.81 11.54,-21.35 33.52,-22.82 52.1,-30.63 52.69,-22.15 109.57,-14.27 164.17,-22.43 49.85,-7.44 99.44,-18.41 148.03,-31.84 30.18,-8.34 42.51,-38.62 55.68,-63.96 9.79,-18.85 15.43,-39.87 22.14,-60.38 2.18,-3.41 4.08,-6.99 5.67,-10.74 14.61,7.5 29,15.38 43.17,23.6 -1.84,3.66 -3.39,7.46 -4.62,11.39 -15.7,27.17 -30.85,53.78 -46.52,79.94 -31.11,51.92 -80.72,74.6 -137.72,81.87 -68.11,8.68 -136.66,13.85 -204.9,21.61 -14.23,1.61 -28.64,6.31 -41.71,12.32 -20.24,9.33 -25.29,25.09 -15.81,44.58 10.87,22.35 22.64,44.25 33.88,66.42 9.99,19.72 12.98,37.89 -3.33,57.47 -13.61,16.34 -24.22,35.59 -33.72,54.76 -4.53,9.14 -6.25,21.64 -4.28,31.64 4.9,24.88 3.09,47.22 -11.85,68.64 -11.17,15.99 -20.82,33.15 -30.05,50.38 -23.14,43.2 -7.07,84.95 7.4,125.74 9.98,28.12 27.38,53.82 35.62,82.3 10.32,35.69 13.13,73.48 21.97,109.69 11.16,45.69 -8.48,82.29 -31.96,117.58 16.87,9.46 33.01,16.06 46.17,26.45 21.57,17.03 18.72,39.38 -5.02,53.6 -17.61,10.56 -37.14,15.6 -55.68,5.92 -20.54,-10.72 -40.95,-23.16 -58.11,-38.54 -19.88,-17.82 -38.86,-32.52 -67.57,-29.64 -53.83,5.42 -107.78,9.59 -161.65,14.55 -5.36,0.5 -10.54,2.89 -20.74,5.83 l -26.42,16.86 0.07,0.06 c -27.21,26.55 -23.51,34.12 -23.34,34.43 3.39,6.15 30.17,4.95 52.33,-0.2 0.74,-0.27 1.55,-0.35 2.38,-0.33 0.06,0.01 0.11,-0.03 0.17,-0.02 0.11,0.01 0.23,0.03 0.35,0.04 2.19,0.26 12.32,2 19.17,10.69 0.15,0.14 0.34,0.23 0.48,0.39 0.65,0.78 1.11,1.62 1.62,2.49 l 15.33,26.15 c 0.74,1.25 1.47,2.51 2.21,3.77 l 71.32,-20.32 c -13,5.36 -59.1,31.83 -72.58,35.85 -3.03,0.9 -6.67,-0.35 -8.3,-3.13 -6.1,-10.41 -12.21,-20.82 -18.31,-31.23 -0.03,-0.05 -0.32,-0.55 -0.75,-1.28 -0.47,-0.8 -0.94,-1.6 -1.41,-2.4 -3.54,-2 -7.07,-4.01 -10.61,-6.01 -16.53,3.66 -56.3,10.34 -66.11,-7.44 -5.73,-10.36 0,-24.38 17.93,-43.68 -5.16,-1.56 -10.35,-0.11 -16.58,4.4 -11.19,8.12 -24.51,13.64 -34.7,22.76 -28.66,25.65 -33.77,86.45 -9.19,122.62 12.67,18.67 29.71,34.37 44.89,51.54 15.08,-15.14 31.43,-16.42 38.31,-1.87 12.29,25.97 37.83,37.06 56.28,55.9 8.99,9.19 17.35,17.35 12.03,32.4 -6.15,17.41 -19.89,23.49 -34.92,13.07 -5.61,-3.9 -9.98,-9.56 -15.15,-14.16 -4.5,-4 -9.33,-7.63 -17.54,-8.31 9.55,11.69 17.32,25.66 28.95,34.66 50.67,39.22 103.84,73.79 163.07,100.2 70.61,31.47 143.33,56.95 219.48,61.42 61.62,3.62 125.03,-4.55 186.15,-15.69 66.99,-12.21 132.18,-35.67 186.36,-78.88 57.84,-46.14 116.69,-92 163.61,-149.96 43.35,-53.56 77.07,-113.24 103.35,-177.12 36.54,-88.85 48.96,-183.43 64.3,-277 9.05,-55.23 -2.63,-110.53 -14.92,-164.91 -10.24,-45.29 -19.03,-90.92 -29.69,-136.1 -10.13,-42.94 -23.22,-85.21 -32.53,-128.31 -10.96,-50.75 -22.98,-101.87 -8.85,-154.25 0.53,-1.99 -0.17,-4.52 0.8,-6.16 3.25,-5.54 5.5,-10.8 7.05,-15.87 8.12,-10.23 13.16,-22.72 15.08,-35.79 6.43,7.75 12.76,15.59 18.93,23.57 -0.87,6.56 -1.67,13.11 -2.37,19.68 -0.56,-0.75 -1.09,-1.54 -1.65,-2.29 0,0 0,0.01 0,0.02 -0.01,-0.01 -0.01,-0.02 -0.02,-0.02 -11.24,49.98 -6.38,98.12 4.1,145.71 5.68,34.05 14.83,68.22 26.96,101.64 7.23,28.29 13.3,56.92 19.8,85.4 11.41,49.94 22.83,99.89 33.36,150.03 11.25,53.6 10.01,107.02 -2.22,160.65"
         style="fill:#1c2156;fill-opacity:1;fill-rule:nonzero;stroke:none"
         transform="matrix(0.13333333,0,0,-0.13333333,0,358.85333)" />
      <path
         id="path4"
         d="m 1651.32,1896.62 c 0,0.04 0,0.02 0,0.07 -0.01,0.77 0.58,0.75 0,-0.07 z m -57.06,34.87 c -2.46,-1.6 -5.66,-2.15 -8.52,-2.59 -6.66,-1 -13.51,-1.24 -20.23,-1.53 -7.23,-0.3 -14.47,-0.39 -21.72,-0.34 -0.94,0.18 -1.89,0.33 -2.83,0.54 -0.77,0.17 -1.52,0.43 -2.29,0.63 1.78,0.86 3.73,1.37 5.7,1.62 6.76,0.87 13.74,0.76 20.54,1.07 7.4,0.34 14.81,0.69 22.21,1.02 2.17,0.09 5.65,0.24 7.13,-0.01 0.07,-0.01 0.23,-0.05 0.43,-0.1 -0.13,-0.1 -0.2,-0.17 -0.42,-0.31 z m -58.05,-2.39 c 0.03,0.01 0.13,-0.05 0.23,-0.21 -0.1,0.16 -0.2,0.22 -0.23,0.21 z m 24.04,-75.6 c -10.63,-4.36 -21.33,-8.57 -32.08,-12.62 -2.5,1.07 -4.94,2.29 -7.48,3.26 -11.3,4.35 -23.44,6.52 -34.56,11.29 -4.48,1.93 -8.73,4.39 -12.08,7.97 -1.26,1.35 -2.08,2.6 -2.65,3.88 16.32,5.08 34.91,2.67 51.34,0.09 16.89,-2.65 33.74,-5.54 50.61,-8.37 -4.36,-1.86 -8.72,-3.7 -13.1,-5.5 z m -7.16,-46.71 c 1.87,-1.38 3.52,-2.95 5.22,-4.49 -4.23,-1.53 -10.45,-2.14 -15.02,-2.91 -13.46,-2.27 -27.02,-3.8 -40.64,-4.68 -7.1,-0.45 -14.21,-0.73 -21.33,-0.83 -5.93,-0.09 -12.1,-0.45 -18,0.39 0.56,-0.08 -2.12,0.43 -2.6,0.55 -1.09,0.26 -2.18,0.56 -3.23,0.95 -0.11,0.04 -0.13,0.04 -0.2,0.07 -0.38,0.18 -0.74,0.39 -1.11,0.59 -0.01,-0.01 0.04,0.03 0.02,0.02 0.39,0.32 2.25,1.42 3.23,1.93 4.36,2.25 10.19,3.67 15.33,5.32 6.47,2.08 12.94,4.21 19.38,6.4 11.15,3.78 22.22,7.81 33.26,11.91 8.98,-4.35 17.68,-9.3 25.69,-15.22 z m 7.68,-3.38 c 0.12,0.05 0.24,0.11 0.36,0.17 -0.12,-0.08 -0.25,-0.14 -0.38,-0.21 0.01,0.01 0.02,0.03 0.02,0.04 z m -105.33,-7.71 c -0.4,-0.34 -0.29,-0.24 0,0.02 0,-0.01 -0.01,-0.01 0,-0.02 z m -0.11,1.18 v 0.01 z m 199.36,120.33 c -12.74,6.21 -27.53,3.91 -41.17,3.68 -1.72,-0.03 -3.44,0.08 -5.15,0.07 0.73,0.88 1.53,1.68 2.13,2.7 3.88,6.61 3.29,14.99 -2.27,20.45 -5.33,5.22 -13.38,5.66 -20.39,5.37 -8.12,-0.33 -16.24,-0.74 -24.36,-1.11 -7.94,-0.36 -16.04,-0.31 -23.89,-1.63 -7.14,-1.2 -14,-4.53 -17.84,-10.91 -1.57,-2.6 -2.09,-5.44 -2.1,-8.24 -15.55,0.53 -31.1,1.18 -46.65,1.8 -10.54,0.81 -21.05,1.27 -31.39,1.56 -6.92,0.2 -13.83,0.33 -20.75,0.46 -11.32,0.21 -11.25,-17.11 0,-17.55 17.87,-0.69 35.74,-1.37 53.61,-2.07 26.6,-2.09 52.92,-6.61 77.34,-17.54 9.1,-4.07 17.86,-8.96 25.92,-14.84 1.81,-1.33 3.71,-2.75 5.51,-4.28 -23.57,4.07 -47.17,8.46 -70.89,11.26 -12.74,1.5 -25.56,1.83 -38.23,-0.48 -3,-0.55 -5.98,-1.27 -8.88,-2.22 -3.48,-1.13 -8,-2.29 -10.25,-5.31 -4.02,-5.38 -1.77,-14 0.96,-19.49 5.75,-11.55 18.12,-17.89 29.73,-21.96 5.56,-1.95 11.21,-3.57 16.83,-5.26 -13.66,-4.77 -27.37,-9.39 -41.15,-13.82 -8.16,-2.62 -17.84,-6.38 -21.72,-14.67 -4.95,-10.57 2.17,-19.99 11.89,-23.84 9.12,-3.61 19.46,-3.14 29.08,-3.02 11.85,0.15 23.7,0.8 35.5,1.93 12.06,1.17 24.1,2.81 36.03,4.95 10.22,1.82 24.71,4.31 25.24,17.5 0.27,6.75 -4.34,12.47 -9.29,16.51 -4.7,3.85 -9.68,7.41 -14.8,10.68 -1.4,0.9 -2.92,1.6 -4.35,2.46 7.48,2.94 14.99,5.8 22.41,8.9 6.34,2.64 12.82,5.13 18.98,8.17 5.3,2.61 10.68,6.25 13.64,11.52 7.22,12.85 -3.14,24.58 -12.8,32.13 -7.2,5.63 -14.83,10.41 -22.75,14.56 0.79,-0.09 1.56,-0.25 2.34,-0.33 17.63,-1.91 35.37,-2.38 53.08,-1.63 7.11,0.31 15.28,1.17 22,-1.62 2.32,-0.96 4.01,-2.48 4.92,-3.97 0.15,-0.25 0.22,-0.37 0.3,-0.51 0.08,-0.28 0.14,-0.75 0.19,-1.08 -0.29,-0.37 -0.68,-0.86 -0.74,-0.95 -2.83,-3.8 -0.62,-9.8 3.14,-12 4.48,-2.62 9.17,-0.67 12.01,3.15 8.09,10.88 -0.29,25.33 -10.97,30.52"
         style="fill:#1c2156;fill-opacity:1;fill-rule:nonzero;stroke:none"
         transform="matrix(0.13333333,0,0,-0.13333333,0,358.85333)" />
      <path
         id="path5"
         d="m 2537.33,1499.13 c 0,0 0,0 0,0.01 -10.48,-47.59 -15.34,-95.73 -4.1,-145.71 0.01,0 0.01,0.01 0.02,0.02 -11.25,49.97 -6.39,98.1 4.08,145.68"
         style="fill:#1c2156;fill-opacity:1;fill-rule:nonzero;stroke:none"
         transform="matrix(0.13333333,0,0,-0.13333333,0,358.85333)" />
      <path
         id="path6"
         d="m 1651.32,1896.62 c 0.58,0.82 -0.01,0.84 0,0.07 0,-0.05 0,-0.03 0,-0.07"
         style="fill:#1c2156;fill-opacity:1;fill-rule:nonzero;stroke:none"
         transform="matrix(0.13333333,0,0,-0.13333333,0,358.85333)" />
      <path
         id="path7"
         d="m 1455.44,1795.7 c -0.01,0.01 0,0.01 0,0.02 -0.29,-0.26 -0.4,-0.36 0,-0.02"
         style="fill:#1c2156;fill-opacity:1;fill-rule:nonzero;stroke:none"
         transform="matrix(0.13333333,0,0,-0.13333333,0,358.85333)" />
      <path
         id="path8"
         d="m 1560.77,1803.41 c 0,-0.01 -0.01,-0.03 -0.02,-0.04 0.13,0.07 0.26,0.13 0.38,0.21 -0.12,-0.06 -0.24,-0.12 -0.36,-0.17"
         style="fill:#1c2156;fill-opacity:1;fill-rule:nonzero;stroke:none"
         transform="matrix(0.13333333,0,0,-0.13333333,0,358.85333)" />
      <path
         id="path9"
         d="m 1492.36,2213.99 c -0.06,-0.01 -0.11,0.03 -0.17,0.02 v -0.04 c 0,0 0.14,0.02 0.17,0.02"
         style="fill:#1c2156;fill-opacity:1;fill-rule:nonzero;stroke:none"
         transform="matrix(0.13333333,0,0,-0.13333333,0,358.85333)" />
      <path
         id="path10"
         d="m 595.469,982.859 c 7.203,19.651 5.894,34.721 -3.93,45.191 -9.828,10.48 -20.973,15.73 -33.41,15.73 h -8.848 v 9.82 h 197.512 v -9.82 h -8.844 c -14.418,0 -29.82,-4.76 -46.187,-14.25 -16.379,-9.5 -29.813,-25.39 -40.282,-47.659 z m -225.02,-630.847 -8.847,68.789 261.382,629.859 h 58.954 L 415.648,453.219 c -7.214,-16.379 -13.265,-30.457 -18.175,-42.25 -4.914,-11.789 -9.188,-23.258 -12.778,-34.391 -3.605,-11.129 -5.402,-19.316 -5.402,-24.566 z m 0,0 L 65.8359,1047.71 H 149.355 L 390.098,445.359 Z M 175.891,982.859 94.332,981.871 c -9.8281,22.269 -22.9414,38.159 -39.3086,47.659 -16.3789,9.49 -32.1054,14.25 -47.16012,14.25 H 0 v 9.82 h 221.09 v -9.82 h -8.844 c -12.449,0 -23.433,-5.25 -32.922,-15.73 -9.5,-10.47 -10.652,-25.54 -3.433,-45.191"
         style="fill:#1c2156;fill-opacity:1;fill-rule:nonzero;stroke:none"
         transform="matrix(0.13333333,0,0,-0.13333333,0,358.85333)" />
      <path
         id="path11"
         d="m 1158.51,927.828 v -67.797 h -10.81 v 14.739 c 0,13.75 -4.42,25.55 -13.27,35.371 -8.84,9.828 -20.8,14.738 -35.87,14.738 v 2.949 z m -45.2,-280.047 V 591.77 h -10.81 v 12.781 c 0,11.129 -3.29,20.789 -9.83,28.98 -6.56,8.188 -16.7,12.289 -30.46,12.289 v 1.961 z m 0,81.559 v -56.012 h -51.1 v 1.973 c 13.76,0 23.9,4.078 30.46,12.277 6.54,8.184 9.83,17.844 9.83,28.992 v 12.77 z m 45.2,241.719 v -25.547 l -112.03,9.828 c 20.3,0 41.92,1.801 64.86,5.41 22.92,3.59 38.65,7.031 47.17,10.309 z m 56.01,-464.77 -54.05,-140.519 h -149.36 l 33.41,30.46 c 32.75,0 59.11,4.739 79.1,14.25 19.98,9.489 36.19,22.598 48.64,39.301 12.44,16.707 23.25,35.528 32.43,56.508 z m -55.03,-110.059 -1.97,-30.46 H 893.199 v 30.46 z m -46.18,279.071 V 645.82 H 893.199 v 29.481 z m 45.2,280.039 V 924.879 H 893.199 v 30.461 z m -263.35,0 V 365.77 h -62.887 v 589.57 z m -60.922,-526.68 12.774,-62.89 h -85.489 v 9.82 h 13.758 c 16.367,0 29.801,5.238 40.289,15.73 10.469,10.461 16.039,22.918 16.703,37.34 z m 0,464.77 h -1.965 c -0.664,15.07 -6.234,27.519 -16.703,37.351 -10.488,9.821 -23.922,14.731 -40.289,14.731 h -13.758 v 9.828 h 85.489 l -12.774,-61.91"
         style="fill:#1c2156;fill-opacity:1;fill-rule:nonzero;stroke:none"
         transform="matrix(0.13333333,0,0,-0.13333333,0,358.85333)" />
      <path
         id="path12"
         d="m 1901.35,894.422 v 60.918 h 73.7 v -9.828 h -16.71 c -14.41,0 -27.02,-4.91 -37.82,-14.731 -10.81,-9.832 -16.22,-21.953 -16.22,-36.359 z m 2.95,60.918 V 477.789 c 0,-20.98 0.65,-41.117 1.97,-60.43 1.3,-19.339 3.59,-41.121 6.87,-65.347 h -8.84 l -43.23,52.078 v 551.25 z m -43.23,-60.918 c -0.66,14.406 -6.24,26.527 -16.71,36.359 -10.48,9.821 -23.26,14.731 -38.32,14.731 h -16.7 v 9.828 h 73.69 V 894.422 Z M 1393.34,426.691 c 0,-14.421 5.41,-26.531 16.21,-36.351 10.81,-9.84 23.41,-14.75 37.83,-14.75 h 16.71 v -9.82 h -73.7 v 60.921 z m -43.24,543.387 544.38,-512.918 9.82,-105.148 -544.37,515.879 z m 0,0 42.25,-55.019 0.99,-549.289 h -44.22 v 481.48 c 0,33.41 -2.95,74.352 -8.84,122.828 z m 1.97,-543.387 V 365.77 h -73.7 v 9.82 h 16.71 c 15.06,0 27.83,4.91 38.32,14.75 10.47,9.82 15.72,21.93 15.72,36.351 h 2.95"
         style="fill:#1c2156;fill-opacity:1;fill-rule:nonzero;stroke:none"
         transform="matrix(0.13333333,0,0,-0.13333333,0,358.85333)" />
      <path
         id="path13"
         d="m 2460.47,927.828 v -67.797 h -10.82 v 14.739 c 0,13.75 -4.42,25.55 -13.26,35.371 -8.85,9.828 -20.8,14.738 -35.86,14.738 v 2.949 z M 2415.25,647.781 V 591.77 h -10.8 v 12.781 c 0,11.129 -3.28,20.789 -9.82,28.98 -6.56,8.188 -16.7,12.289 -30.47,12.289 v 1.961 z m 0,81.559 v -56.012 h -51.09 v 1.973 c 13.77,0 23.91,4.078 30.47,12.277 6.54,8.184 9.82,17.844 9.82,28.992 v 12.77 z m 45.22,241.719 v -25.547 l -112.03,9.828 c 20.31,0 41.91,1.801 64.86,5.41 22.91,3.59 38.63,7.031 47.17,10.309 z m 55.99,-464.77 -54.04,-140.519 h -149.35 l 33.41,30.46 c 32.74,0 59.11,4.739 79.11,14.25 19.96,9.489 36.19,22.598 48.63,39.301 12.44,16.707 23.24,35.528 32.42,56.508 z m -55.01,-110.059 -1.98,-30.46 h -264.31 v 30.46 z m -46.2,279.071 V 645.82 h -220.09 v 29.481 z m 45.22,280.039 v -30.461 h -265.31 v 30.461 z m -263.34,0 V 365.77 h -62.89 v 589.57 z m -60.94,-526.68 12.77,-62.89 h -85.48 v 9.82 h 13.77 c 16.36,0 29.78,5.238 40.27,15.73 10.49,10.461 16.05,22.918 16.72,37.34 z m 0,464.77 h -1.95 c -0.67,15.07 -6.23,27.519 -16.72,37.351 -10.49,9.821 -23.91,14.731 -40.27,14.731 h -13.77 v 9.828 h 85.48 l -12.77,-61.91"
         style="fill:#1c2156;fill-opacity:1;fill-rule:nonzero;stroke:none"
         transform="matrix(0.13333333,0,0,-0.13333333,0,358.85333)" />
      <path
         id="path14"
         d="m 2836.81,955.34 c 30.78,0 58.46,-3.602 83.02,-10.801 24.57,-7.219 45.53,-17.699 62.89,-31.449 17.36,-13.762 30.62,-30.469 39.8,-50.11 9.17,-19.652 13.76,-41.941 13.76,-66.82 0,-27.519 -6.55,-53.07 -19.65,-76.648 -13.11,-23.582 -31.3,-42.91 -54.54,-57.973 -23.26,-15.078 -49.62,-24.25 -79.1,-27.519 11.13,-4.59 24.07,-14.739 38.82,-30.461 14.73,-15.719 27.34,-31.118 37.83,-46.18 17.02,-22.938 32.25,-42.738 45.68,-59.449 13.42,-16.7 26.69,-32.59 39.81,-47.66 13.75,-15.079 26.35,-28.168 37.82,-39.301 11.45,-11.149 23.91,-19.821 37.34,-26.039 13.42,-6.231 28.99,-9.34 46.67,-9.34 v -9.82 h -30.46 c -36.03,0 -65.68,4.582 -88.92,13.761 -23.26,9.16 -42.1,20.457 -56.51,33.891 -14.41,13.418 -26.86,26.367 -37.33,38.816 -2.63,3.262 -8.69,11.621 -18.18,25.051 -9.51,13.43 -19.82,28.012 -30.95,43.731 -11.15,15.718 -21.3,29.968 -30.46,42.75 -9.19,12.769 -14.75,20.468 -16.71,23.089 -13.11,17.02 -28.17,32.262 -45.2,45.7 -17.04,13.41 -35.05,20.132 -54.05,20.132 v 9.829 c 20.96,-0.661 39.63,-0.661 56.02,0 18.33,0.64 36.68,2.121 55.02,4.421 18.34,2.289 35.53,9.34 51.59,21.129 16.05,11.789 28.65,31.442 37.83,58.961 2.61,7.199 4.57,15.719 5.9,25.547 1.3,9.82 1.62,19.973 0.98,30.453 -0.66,18.328 -4.1,34.719 -10.32,49.129 -6.24,14.41 -15.07,26.86 -26.53,37.352 -11.46,10.468 -25.06,18.668 -40.78,24.558 -15.72,5.899 -33.41,9.168 -53.06,9.828 -30.8,1.301 -57.65,1.622 -80.57,0.981 -22.94,-0.649 -34.4,-0.649 -34.4,0 0,0.641 -0.83,3.441 -2.45,8.351 -1.65,4.918 -4.1,12.282 -7.37,22.11 z M 2718.89,428.66 h 2.95 c 0.64,-14.422 6.22,-26.879 16.7,-37.34 10.47,-10.492 23.59,-15.73 39.31,-15.73 h 12.78 l 0.97,-9.82 h -84.5 z m 2.95,526.68 V 365.77 h -62.88 v 589.57 z m -59.95,-526.68 11.8,-62.89 h -83.52 v 9.82 h 13.76 c 15.72,0 28.81,5.238 39.3,15.73 10.47,10.461 16.05,22.918 16.7,37.34 z m 0,464.77 h -1.96 c -0.65,15.07 -6.23,27.519 -16.7,37.351 -10.49,9.821 -23.58,14.731 -39.3,14.731 h -13.76 v 9.828 h 83.52 l -11.8,-61.91"
         style="fill:#1c2156;fill-opacity:1;fill-rule:nonzero;stroke:none"
         transform="matrix(0.13333333,0,0,-0.13333333,0,358.85333)" />
      <path
         id="path15"
         d="m 3648.45,437.5 h 74.68 c 9.83,-22.281 21.94,-38.172 36.36,-47.66 14.4,-9.5 28.16,-14.25 41.27,-14.25 h 7.86 v -9.82 h -201.44 v 9.82 h 7.86 c 11.13,0 21.28,5.41 30.47,16.211 9.16,10.808 10.14,26.051 2.94,45.699 z m -166.06,531.602 270.22,-597.43 h -77.63 l -209.3,509.976 z m 115.95,-374.383 v -29.481 h -260.4 v 29.481 z m -115.95,374.383 6.88,-67.801 -225.02,-532.582 h -61.91 l 232.88,499.172 c 7.2,15.718 13.27,29.3 18.18,40.781 4.91,11.449 9.33,22.746 13.27,33.898 3.93,11.129 6.21,19.981 6.87,26.532 z M 3292.74,437.5 c -7.21,-19.648 -6.24,-34.891 2.95,-45.699 9.16,-10.801 19.65,-16.211 31.44,-16.211 h 7.86 v -9.82 h -187.68 v 9.82 h 7.87 c 13.76,0 27.83,4.75 42.25,14.25 14.4,9.488 26.85,25.379 37.34,47.66 h 57.97"
         style="fill:#1c2156;fill-opacity:1;fill-rule:nonzero;stroke:none"
         transform="matrix(0.13333333,0,0,-0.13333333,0,358.85333)" />
      <path
         id="path16"
         d="m 1369.64,111.52 -4.61,-57.4419 C 1357.75,42.8984 1348.26,33.2617 1336.52,25.1484 1324.78,17.0391 1311.5,10.8281 1296.68,6.48828 1281.87,2.16016 1266.22,0 1249.73,0 c -28.24,0.28125 -52.77,5.73047 -73.59,16.3398 -20.82,10.629 -36.83,25.7188 -48.01,45.2891 -11.18,19.5625 -16.77,42.9101 -16.77,70.0191 0,27.391 5.59,50.872 16.77,70.442 11.18,19.558 27.19,34.648 48.01,45.281 20.82,10.617 45.35,15.938 73.59,15.938 17.33,0 34.8,-2.25 52.4,-6.707 17.62,-4.481 32.85,-10.774 45.71,-18.872 l 9.22,-59.121 h -3.77 c -6.16,25.711 -18.52,44.161 -37.11,55.34 -18.59,11.18 -40.88,16.77 -66.87,16.77 -22.09,0 -41.17,-4.809 -57.23,-14.457 -16.08,-9.641 -28.52,-23.34 -37.32,-41.09 -8.8,-17.75 -13.21,-38.922 -13.21,-63.524 0,-24.046 4.41,-44.9292 13.21,-62.6792 8.8,-17.75 21.31,-31.4375 37.53,-41.0899 16.2,-9.6406 35.35,-14.6094 57.44,-14.8906 20.96,0 39.89,3.4219 56.81,10.2812 16.91,6.8399 30.67,17.5391 41.3,32.0703 10.62,14.5313 16.62,33.2618 18.02,56.1802 h 3.78"
         style="fill:#606060;fill-opacity:1;fill-rule:nonzero;stroke:none"
         transform="matrix(0.13333333,0,0,-0.13333333,0,358.85333)" />
      <path
         id="path17"
         d="m 1597.72,36.4688 h 31.86 c 4.2,-9.5 9.37,-16.2891 15.52,-20.3282 6.15,-4.0508 12.01,-6.082 17.61,-6.082 h 3.35 V 5.87109 h -85.95 v 4.18751 h 3.36 c 4.75,0 9.07,2.3008 12.99,6.9219 3.92,4.6093 4.34,11.1093 1.26,19.4883 z M 1526.87,263.309 1642.16,8.39063 h -33.12 L 1519.74,225.98 Z m 49.47,-159.75 V 90.9805 h -111.11 v 12.5785 z m -49.47,159.75 2.93,-28.938 -96.02,-227.24209 h -26.41 l 99.37,212.98009 c 3.07,6.711 5.66,12.512 7.76,17.411 2.09,4.89 3.98,9.699 5.66,14.46 1.67,4.758 2.65,8.52 2.93,11.329 z M 1445.94,36.4688 c -3.07,-8.379 -2.66,-14.879 1.26,-19.4883 3.91,-4.6211 8.39,-6.9219 13.42,-6.9219 h 3.35 V 5.87109 h -80.08 v 4.18751 h 3.36 c 5.87,0 11.87,2.0312 18.02,6.082 6.15,4.0391 11.46,10.8282 15.94,20.3282 h 24.73"
         style="fill:#606060;fill-opacity:1;fill-rule:nonzero;stroke:none"
         transform="matrix(0.13333333,0,0,-0.13333333,0,358.85333)" />
      <path
         id="path18"
         d="m 1785.14,257.43 c 19.56,0 36.47,-2.86 50.73,-8.602 14.25,-5.726 25.29,-13.969 33.12,-24.726 7.82,-10.762 11.74,-23.563 11.74,-38.364 0,-15.937 -3.56,-29.558 -10.69,-40.879 -7.13,-11.328 -16.56,-19.988 -28.3,-26 -11.74,-6.007 -24.74,-8.949 -39,-8.8 -14.25,0.132 -28.51,3.703 -42.76,10.691 v 4.191 c 9.22,-1.671 17.47,-2.453 24.74,-2.312 7.26,0.141 14.95,1.402 23.06,3.781 8.1,2.371 15.72,6.77 22.85,13.211 7.12,6.418 12.79,15.649 16.98,27.668 1.11,3.07 1.89,6.711 2.3,10.902 0.42,4.188 0.63,8.11 0.63,11.739 0,17.05 -5.87,30.461 -17.61,40.25 -11.73,9.781 -27.95,14.672 -48.63,14.672 h -41.09 c -1.4,4.199 -2.94,8.386 -4.61,12.578 z M 1742.79,32.6992 h 0.84 c 0.27,-6.1484 2.72,-11.4609 7.34,-15.9375 4.61,-4.4726 10.27,-6.7031 16.97,-6.7031 0.28,0 2.24,0 5.87,0 V 5.87109 h -36.47 z m 1.26,224.7308 V 5.87109 h -26.84 V 257.43 Z m -26,-224.7308 5.45,-26.82811 h -36.47 v 4.18751 h 5.87 c 6.7,0 12.36,2.2305 16.98,6.7031 4.61,4.4766 7.05,9.7891 7.33,15.9375 z m 0,198.3208 h -0.84 c -0.28,6.429 -2.72,11.742 -7.33,15.929 -4.62,4.192 -10.28,6.289 -16.98,6.289 h -5.87 v 4.192 h 36.47 l -5.45,-26.41"
         style="fill:#606060;fill-opacity:1;fill-rule:nonzero;stroke:none"
         transform="matrix(0.13333333,0,0,-0.13333333,0,358.85333)" />
      <path
         id="path19"
         d="m 1978.42,32.6992 h 1.26 c 0.27,-6.1484 3.14,-11.4609 8.59,-15.9375 5.45,-4.4726 12.09,-6.7031 19.92,-6.7031 h 5.45 l 0.42,-4.18751 h -35.64 z m 0,197.9028 v 26.828 h 35.64 l -0.42,-4.192 h -5.45 c -7.83,0 -14.47,-2.168 -19.92,-6.5 -5.45,-4.328 -8.32,-9.707 -8.59,-16.136 z m 1.26,26.828 V 5.87109 h -26.42 V 257.43 Z M 1954.52,32.6992 V 5.87109 h -35.64 v 4.18751 h 5.87 c 7.82,0 14.46,2.2305 19.92,6.7031 5.45,4.4766 8.31,9.7891 8.59,15.9375 z m 0,197.9028 h -1.26 c -0.28,6.429 -3.14,11.808 -8.59,16.136 -5.46,4.332 -12.1,6.5 -19.92,6.5 -0.28,0 -2.24,0 -5.87,0 v 4.192 h 35.64 v -26.828"
         style="fill:#606060;fill-opacity:1;fill-rule:nonzero;stroke:none"
         transform="matrix(0.13333333,0,0,-0.13333333,0,358.85333)" />
      <path
         id="path20"
         d="M 2273.17,246.109 V 217.18 h -4.61 v 6.711 c 0,5.871 -1.89,10.828 -5.66,14.89 -3.77,4.039 -8.88,6.207 -15.3,6.489 v 0.839 z m 0,18.45 V 253.66 l -46.96,4.192 c 5.59,0 11.53,0.347 17.82,1.046 6.29,0.704 12.09,1.602 17.41,2.731 5.3,1.109 9.21,2.09 11.73,2.93 z M 2170.45,32.6992 h 1.26 c 0.27,-6.1484 2.79,-11.4609 7.55,-15.9375 4.74,-4.4726 10.48,-6.7031 17.19,-6.7031 h 4.6 V 5.87109 h -30.6 z m 1.26,223.4808 V 5.87109 h -27.26 V 256.18 Z M 2145.29,32.6992 V 5.87109 h -30.6 v 4.18751 c 0.27,0 1.95,0 5.03,0 6.71,0 12.43,2.2305 17.18,6.7031 4.76,4.4766 7.27,9.7891 7.55,15.9375 z m -76.73,213.4098 v -0.839 c -6.43,-0.282 -11.52,-2.45 -15.3,-6.489 -3.77,-4.062 -5.66,-9.019 -5.66,-14.89 v -6.711 h -4.61 v 28.929 z m 204.61,11.743 V 245.27 h -230.18 v 12.582 z m -230.18,6.707 c 2.51,-0.84 6.35,-1.821 11.53,-2.93 5.17,-1.129 10.96,-2.027 17.39,-2.731 6.44,-0.699 12.45,-1.046 18.04,-1.046 l -46.96,-4.192 v 10.899"
         style="fill:#606060;fill-opacity:1;fill-rule:nonzero;stroke:none"
         transform="matrix(0.13333333,0,0,-0.13333333,0,358.85333)" />
      <path
         id="path21"
         d="m 2461.43,36.4688 h 31.86 c 4.19,-9.5 9.36,-16.2891 15.51,-20.3282 6.14,-4.0508 12.02,-6.082 17.61,-6.082 h 3.36 V 5.87109 h -85.96 v 4.18751 h 3.36 c 4.74,0 9.08,2.3008 13,6.9219 3.9,4.6093 4.32,11.1093 1.26,19.4883 z M 2390.57,263.309 2505.87,8.39063 h -33.13 L 2383.44,225.98 Z m 49.47,-159.75 V 90.9805 h -111.1 v 12.5785 z m -49.47,159.75 2.93,-28.938 -96.02,-227.24209 h -26.41 l 99.37,212.98009 c 3.08,6.711 5.66,12.512 7.75,17.411 2.1,4.89 3.99,9.699 5.67,14.46 1.68,4.758 2.65,8.52 2.93,11.329 z M 2309.65,36.4688 c -3.09,-8.379 -2.67,-14.879 1.25,-19.4883 3.91,-4.6211 8.39,-6.9219 13.42,-6.9219 h 3.36 V 5.87109 h -80.09 v 4.18751 h 3.36 c 5.87,0 11.87,2.0312 18.02,6.082 6.15,4.0391 11.46,10.8282 15.93,20.3282 h 24.75"
         style="fill:#606060;fill-opacity:1;fill-rule:nonzero;stroke:none"
         transform="matrix(0.13333333,0,0,-0.13333333,0,358.85333)" />
      <path
         id="path22"
         d="M 2744.01,65.8281 2720.96,5.87109 h -63.73 l 14.24,12.98831 c 13.98,0 25.23,2.0312 33.76,6.082 8.52,4.0469 15.44,9.6484 20.76,16.7774 5.3,7.121 9.91,15.1523 13.83,24.1093 z M 2720.54,18.8594 2719.7,5.87109 H 2606.91 V 18.8594 Z M 2606.49,230.602 v 26.828 h 31.03 v -4.192 h -5.03 c -6.71,0 -12.52,-2.168 -17.4,-6.5 -4.89,-4.328 -7.35,-9.707 -7.35,-16.136 z m 1.25,26.828 V 5.87109 h -26.82 V 257.43 Z m -25.99,-224.7308 5.46,-26.82811 h -36.49 v 4.18751 h 5.87 c 6.99,0 12.73,2.2305 17.2,6.7031 4.46,4.4766 6.84,9.7891 7.13,15.9375 z m 0,197.9028 h -0.83 c -0.29,6.429 -2.8,11.808 -7.55,16.136 -4.76,4.332 -10.63,6.5 -17.61,6.5 h -5.04 v 4.192 h 31.03 v -26.828"
         style="fill:#606060;fill-opacity:1;fill-rule:nonzero;stroke:none"
         transform="matrix(0.13333333,0,0,-0.13333333,0,358.85333)" />
      <path
         id="path23"
         d="m 2625.19,1197.3 v -20.88 H 3747.9 v 20.88 H 2625.19"
         style="fill:#1c2156;fill-opacity:1;fill-rule:nonzero;stroke:none"
         transform="matrix(0.13333333,0,0,-0.13333333,0,358.85333)" />
      <path
         id="path24"
         d="M 1349.12,1197.3 H 9.83984 v -20.88 H 1349.12 v 20.88"
         style="fill:#1c2156;fill-opacity:1;fill-rule:nonzero;stroke:none"
         transform="matrix(0.13333333,0,0,-0.13333333,0,358.85333)" />
      <path
         id="path25"
         d="M 1023.66,165.961 H 41.1094 V 145.09 H 1023.66 v 20.871"
         style="fill:#1c2156;fill-opacity:1;fill-rule:nonzero;stroke:none"
         transform="matrix(0.13333333,0,0,-0.13333333,0,358.85333)" />
      <path
         id="path26"
         d="M 2822.53,165.961 V 145.09 h 979.23 v 20.871 h -979.23"
         style="fill:#1c2156;fill-opacity:1;fill-rule:nonzero;stroke:none"
         transform="matrix(0.13333333,0,0,-0.13333333,0,358.85333)" />
    </g>
  </g>
</svg>
